<svg xmlns="http://www.w3.org/2000/svg" aria-hidden="true" viewBox="0 0 1400 980"><g fill="#24402c"><path d="M984.8-178.2c31.8 28.9 49.1 67.2 66.9 105a600 600 0 0 1 19.5 46.1c6.5 17.5-.9 25.6-19.9 28-19.2 2.4-38.9 1.4-58.4 2.2Q954.95 4.75 917 7c-10.1.6-20.2 1.7-30.3 2.4-9 .6-18.2-5.8-21.2-14.3-4-11.4-1-22.5 1.1-33.7 4.4-23.6 8.8-47.3 12.6-71 1.9-12 13.4-25 25.3-27.1 11.5-2 21.8-7.1 30.2-15.1 8.6-8.2 16.1-17.5 24.1-26.4zM92-161.3c31.8 28.9 49.1 67.2 66.9 105a600 600 0 0 1 19.5 46.1c6.5 17.5-.9 25.6-19.9 28-19.2 2.4-38.9 1.4-58.4 2.2q-37.95 1.65-75.9 3.9c-10.1.6-20.2 1.7-30.3 2.4-9 .6-18.2-5.8-21.2-14.3-4-11.4-1-22.5 1.1-33.7 4.4-23.6 8.8-47.3 12.6-71 1.9-12 13.4-25 25.3-27.1 11.5-2 21.8-7.1 30.2-15.1 8.6-8.2 16.1-17.5 24.1-26.4zM285.6 254.2c3.3-12.4 6.2-24.9 9.9-37.2s13.5-17.3 25.4-18.1c8.3-.6 16.9.9 25-.4 19.5-3.2 39.3-5.7 58-11.7 24.6-7.8 45.8-5.8 64.6 12.6 15.4 15.1 30.9 29.9 45.9 45.4 6 6.2 6.1 14.6 1.8 21.9-18.8 31.7-38.4 63-56.3 95.3-14.1 25.4-35.5 32.9-62.4 30.7-11.2-.9-22.9-.9-30.5-10.8-3.6-4.6-6-10.4-7.8-16.1-3.7-11.3-5.2-23.4-10.1-34.1-6.5-14.1-19.4-23.1-31.5-32.4-8.2-6.3-16.6-12.6-24.3-19.5-7.4-6.8-5.7-16.3-7.7-25.6M91 913.2c3.3-12.4 6.2-24.9 9.9-37.2s13.5-17.3 25.4-18.1c8.3-.6 16.9.9 25-.4 19.5-3.2 39.3-5.7 58-11.7 24.6-7.8 45.8-5.8 64.6 12.6 15.4 15.1 30.9 29.9 45.9 45.4 6 6.2 6.1 14.6 1.8 21.9-18.8 31.7-38.4 63-56.3 95.3-14.1 25.4-35.5 32.9-62.4 30.7-11.2-.9-22.9-.9-30.5-10.8-3.6-4.6-6-10.4-7.8-16.1-3.7-11.3-5.2-23.4-10.1-34.1-6.5-14.1-19.4-23.1-31.5-32.4-8.2-6.3-16.6-12.6-24.3-19.5-7.3-6.8-5.6-16.3-7.7-25.6M819.1 924.7c3.3-12.4 6.2-24.9 9.9-37.2s13.5-17.3 25.5-18.1c8.3-.6 16.9.9 25-.4 19.5-3.2 39.3-5.7 58-11.7 24.6-7.8 45.8-5.8 64.6 12.6 15.4 15.1 30.9 29.9 45.9 45.4 6 6.2 6.1 14.6 1.8 21.9-18.8 31.7-38.4 63-56.3 95.3-14.1 25.4-35.5 32.9-62.4 30.7-11.2-.9-22.9-.9-30.5-10.8-3.6-4.6-6-10.4-7.8-16.1-3.7-11.3-5.2-23.4-10.1-34.1-6.5-14.1-19.4-23.1-31.5-32.4-8.2-6.3-16.6-12.6-24.3-19.5-7.5-6.9-5.8-16.4-7.8-25.6M1219.9 195.2c23.9 2.3 46.1-5.3 68.7-11.2 6.6-1.7 13.4-2.9 20.2-3.7 18.3-2.1 30.5 9.2 42.1 20.6 12.3 12.1 23.8 24.9 35.5 37.5 9.5 10.2 10 18.9 2.3 30.7l-50.6 77.6c-4 6.1-8.1 12.2-11.8 18.5-6.9 12-17.6 20-30.6 21.8-14.4 2-29.4 2.3-43.8.2-13.3-1.9-20.5-11.9-22.7-26-2-13.1-5-26.6-10.7-38.4-4.1-8.7-12.8-15.5-20.2-22.4-8.7-8.1-18.3-15.2-27-23.3-2.6-2.5-4.5-6.7-5-10.4-2.5-18.5 2.8-35.8 9.7-52.5 6.8-16.5 21.1-19.8 37-19.4 2.3 0 4.6.2 6.9.4M529.3 602.5l-4.5 29.2c-2.1 14-4.7 28-6.2 42.1-1.4 12.8-1.5 25.8-2.3 38.7-.2 3.3-.6 6.6-1.4 9.7-4.3 15.5-14.1 21.7-28.6 15.1-21.3-9.8-42-21.1-62.2-33-12.8-7.6-24.7-17-36-26.7-11.6-10-24.9-15.6-39.1-19.4-13.7-3.6-18.2-7.6-18.6-21.8-.3-9 .8-18.2 2.3-27.2 2.5-14.8 16-18.5 26.8-24.7 21.1-12.1 42.5-23.6 63.4-36 12.7-7.5 25.4-8.9 38.3-2.2 17.8 9.2 35 19.3 52.8 28.6 11.3 6 15.9 15 15.3 27.6M1299.6 534.9c15.1.8 26.2 9.2 37.9 15.5 10 5.4 19.6 11.7 29.3 17.7 15.1 9.3 18.2 17.2 14 35.2-6.7 28.6-13.4 57.2-19.8 85.9-1.5 6.6-1.5 13.6-2.7 20.3-3.7 19.8-17.2 27.2-35.9 19.6-26.6-10.8-49.8-27.2-72.2-44.8-6.8-5.3-13-11.3-19.2-17.2-10.2-9.7-23.2-13.3-36-17.1-10.3-3-13.8-6-14.3-16.8-.7-14.9 1-29.5 10.9-41.6 2.9-3.5 7-6.5 11.1-8.7 24.8-13.2 49.8-26.2 74.8-38.9 7-3.8 14.7-6.2 22.1-9.1M451.7-78c-.1 9.1-5.3 14.4-12 18.8-8.6 5.7-16.9 12.2-26.1 16.9-12.8 6.6-20.4 17.7-28.6 28.7-9.1 12.1-18.7 23.9-28.7 35.3-17.7 20.3-41.6 12.7-55.6 0-20.4-18.6-42.6-34.2-66-48.3-7.3-4.4-14.3-9.6-20.9-15.1-4.9-4.1-7.4-10.2-5.1-16.5 2.2-6.1 7.8-8.4 14.1-8.7 38.1-1.8 64.2-21.7 82.5-54 4.2-7.5 9.5-14.4 14.8-21.1 6-7.7 15-9.7 24.7-5.4 13.7 6.1 27 13 40.7 18.9 11.9 5.1 24.3 8.7 36.1 14 11.6 5.2 20.9 13.5 26.4 25.3 1.6 3.4 2.5 7.4 3.7 11.2M1342.8-73.5c-3.2 4.8-5.8 10.3-9.8 14.3a51 51 0 0 1-14.4 9.8c-22.9 10.7-38.7 28.8-52.8 49-5.9 8.5-13.2 16-20.4 23.4-11.3 11.4-24.9 13.3-39.1 6.6-7.7-3.6-15.7-7.9-21.4-14-17.9-19.2-40.3-32.2-60.8-47.7-7.3-5.5-14.5-12-19.6-19.5-5.7-8.3-.8-16.7 9.2-18.5 8-1.4 16-2.2 24-3.6 25.6-4.5 42.8-20.8 57.1-41 5.9-8.3 11.2-17 17.5-24.9 9.6-11.9 16.7-13.6 30.5-7.3 20 9.2 39.8 18.8 59.7 28.4 6.1 3 12.2 6.2 17.7 10.1 9.3 6.6 16.5 15 19.8 26.2.7 2.4 1 4.9 1.5 7.3.4.5.9.9 1.3 1.4M1598 351.2c-3.2 4.8-5.8 10.3-9.8 14.3a51 51 0 0 1-14.4 9.8c-22.9 10.7-38.7 28.8-52.8 49-5.9 8.5-13.2 16-20.4 23.4-11.3 11.4-24.9 13.3-39.1 6.6-7.7-3.6-15.7-7.9-21.4-14-17.9-19.2-40.3-32.2-60.8-47.7-7.3-5.5-14.5-12-19.6-19.5-5.7-8.3-.8-16.7 9.2-18.5 8-1.4 16-2.2 24-3.6 25.6-4.5 42.8-20.8 57.1-41 5.9-8.3 11.2-17 17.5-24.9 9.6-11.9 16.7-13.6 30.5-7.3 20 9.2 39.8 18.8 59.7 28.4 6.1 3 12.2 6.2 17.7 10.1 9.3 6.6 16.5 15 19.8 26.2.7 2.4 1 4.9 1.5 7.4.4.5.8.9 1.3 1.3M1363.6 893.7c-3.2 4.8-5.8 10.3-9.8 14.3a51 51 0 0 1-14.4 9.8c-22.9 10.7-38.7 28.8-52.8 49-5.9 8.5-13.2 16-20.4 23.4-11.3 11.4-24.9 13.3-39.1 6.6-7.7-3.6-15.7-7.9-21.4-14-17.9-19.2-40.3-32.2-60.8-47.7-7.3-5.5-14.5-12-19.6-19.5-5.7-8.3-.8-16.7 9.2-18.5 8-1.4 16-2.2 24-3.6 25.6-4.5 42.8-20.8 57.1-41 5.9-8.3 11.2-17 17.5-24.8 9.6-11.9 16.7-13.6 30.5-7.3 20 9.2 39.8 18.8 59.7 28.4 6.1 3 12.2 6.2 17.7 10.1 9.3 6.6 16.5 15 19.8 26.2.7 2.4 1 4.9 1.5 7.4.4.4.8.8 1.3 1.2M965.7 819c-26 1.8-52.1 3.5-78.1 5.4-9.6.7-19.2 1.3-28.7 2.5-19.9 2.5-30.9-8-27.8-28 2.1-13 6-25.7 8.4-38.6 2.3-12.4 4-25 5.5-37.6 1.3-10.7 11.1-21.8 21.7-23.6 15.1-2.6 27.8-9 37.5-21.1 3.5-4.3 7.5-8.3 11.7-12 10.8-9.4 19.6-9.8 30.5-.6 17.1 14.3 30.3 32 40.7 51.7 8.7 16.3 17.8 32.5 25.6 49.2 5.1 10.9 9.3 22.4 12.2 34 2.3 9.2-.5 13.6-10.3 15.3-14.4 2.6-29.1 3.2-43.7 4.5-1.7.2-3.5-.2-5.3-.3.1-.2.1-.5.1-.8M520.2 207c-7.4-.2-12.7-2.7-16.1-10.2-6.3-13.9-16.8-24.2-31.4-29.3-10.1-3.6-15.6-10.9-19.2-20.1-8.8-22.3-18.2-44.2-35.2-61.7-8.1-8.4-16.4-16.6-24.3-25.1-2.9-3.1-5.3-6.8-7.3-10.5-2.5-4.6-1.6-8.9 3-11.9 24.6-15.9 40.4-39.8 55.8-63.6 7.6-11.8 13.2-10.1 22.3-3.6 10 7 19.5 15.9 27.2 25.6 13.9 17.4 26.2 36 39.3 54.1 2.5 3.4 6.3 6 8.4 9.6 2.2 3.7 4.9 8.4 4.3 12.1-3.8 21.9-6.6 43.7-5.5 66.2.9 17.1-1.6 34.3-2.9 51.5-.6 10.8-7.6 16.9-18.4 16.9M713.4 597.2c3.7.6 7.5 1 11.1 1.9 13.6 3.6 25.7.5 37.8-6.3 14.5-8.3 29.2-16.4 44.6-22.5 18.4-7.3 29.1.2 33.7 19.4 1.8 7.3 6.8 13.9 11.1 20.4 6.8 10.3 14.5 20 21.1 30.4 3.7 5.8 1.6 11.6-2.7 16.8-13 15.5-25.1 31.9-39 46.6-23.8 25.2-47.7 29.7-80.5 10.3-19.6-11.6-39.5-22.7-60.2-32.1-23.8-10.8-32.6-34.2-19.4-56.9 9.5-16.4 22.1-27.7 42.4-28M1396 207.7c-6.3-.2-11.7-2.8-14.5-9.5-5.7-14-14.9-24.7-29.3-30.2-13-5-17.4-16.5-20.8-28.3-8.1-28.3-24.2-51.5-44.8-72.1-4.8-4.8-8.7-10.6-12.3-16.4-3.1-5.1-2.8-10.1 3-13.8 23.8-15.1 39.4-37.7 55-60.2 7.3-10.5 12.5-12.9 22.3-4.9 9.7 7.8 18.9 17 26.3 27 11.8 16 22 33.2 33 49.9 2.9 4.4 7.1 8.1 9.5 12.7 2.2 4.2 4.9 9.8 3.8 13.8-7.1 26.4-6.7 53.6-9 80.5-1.1 13.1-2.3 26.3-4.8 39.1-1.7 8.7-7.9 12.2-17.4 12.4M692.9 305.8c-.8 18.2-5.1 22.4-22.5 29.1-10.1 3.8-19.7 9.1-29 14.6-9.9 5.9-14.8 15.4-16.5 26.8-2.7 17.3-10.4 32.4-22.1 45-3.1 3.4-10.6 5.5-15 4.3-17.3-4.8-34.5-10.3-51-17.1-10.1-4.2-19.5-10.7-28.4-17.3-15.3-11.4-17.7-23.8-6.8-39.4 10.3-14.7 22.1-28.4 33.3-42.5.3-.4.8-.7 1-1.1 11.7-23.4 32.9-31.8 56.6-37.6 23.3-5.7 46.7-9.4 70.7-9.1 21.6.2 23.6 1.9 27.2 22.9 1.3 7.9 1.9 16 2.5 21.4M340.2 852.9c-17.8-1.2-31.1-6.7-42-16.9-15-14.1-32.8-23.6-50.6-33.4-8.6-4.8-17-10.3-24.3-16.7-3.1-2.7-5.6-9.6-4.3-13.1 1.3-3.6 7.3-6.4 11.7-7.6 9-2.5 18.5-3.1 27.4-5.6 16.7-4.8 28.4-16.3 37.9-30.2 6-8.8 11.4-18 17.5-26.8 7.1-10.3 15.8-12.7 27.1-8.3 22.4 8.7 44.9 17.3 67.3 26.2a66 66 0 0 1 30.1 23.6c6.7 9.4 5 19.8-4.6 26.5-9.2 6.3-19.2 11.4-28.2 17.9-6.6 4.8-12.6 10.8-18 17-11.5 13.1-22 27.1-33.8 39.9-3.6 4.1-10.1 5.8-13.2 7.5M360.8 432.2c-1.7 3.9-2.9 9.7-6.2 13.8-15.9 19.8-36.8 32.2-61.4 38.2-9.5 2.3-17.4-1.6-22.4-9.3-6.3-9.7-10.4-20.9-17-30.4-8.6-12.1-18.3-23.5-28.3-34.5-12.8-14-27-26.7-39.5-41-12.6-14.4-8.2-26.7 10-32.7 17-5.7 34.1-11.5 50.8-18.1 6.9-2.7 13.2-7.5 19.3-11.8 11.4-8 17.3-7.5 25.9 3 13.6 16.7 28.1 32.9 40.6 50.4 15.1 21 23.7 45.1 28.2 72.4M174.4 791.3c-1.7 3.9-2.9 9.7-6.2 13.8-15.9 19.8-36.8 32.2-61.4 38.2-9.5 2.3-17.4-1.6-22.4-9.3-6.3-9.7-10.4-20.9-17-30.4-8.6-12.2-18.4-23.5-28.4-34.5-12.8-14-27-26.7-39.5-41-12.6-14.4-8.2-26.7 10-32.7 17-5.7 34.1-11.5 50.8-18.1 6.9-2.7 13.2-7.5 19.3-11.8 11.4-8 17.3-7.5 25.9 3 13.6 16.7 28.1 32.9 40.6 50.4 15.1 20.9 23.7 45 28.3 72.4M1167.7 841.5c-15.4-1.8-27-4.4-35.8-12.7-17.7-16.7-38.5-28.8-59.3-41-6-3.5-11.9-8-16.2-13.4-6.6-8.2-3.4-16.5 6.9-19 7.8-1.9 16-2.1 23.9-3.8 23.3-5 40.6-18.8 54.4-37.6 5.6-7.6 10.9-15.3 16.9-22.5 7.5-9 15.8-10.8 26.6-6.4 20.7 8.4 41.4 16.5 62 25.3 14.3 6.1 26.9 14.5 31.4 30.8 2.3 8.4.2 14.4-7.2 18.8-9.6 5.7-19.9 10.4-29 16.7-8.8 6.1-17.1 13.3-24.7 20.8-11 10.8-20.7 23-32 33.5-5.6 5.3-13.5 8-17.9 10.5M1227.7 420.6c1.7 10.9-3.6 19.3-10.6 26-17.5 16.7-37.9 28.6-62 33.3-7.1 1.4-12.8-.8-16.9-6.1-4-5.2-8-10.8-10-16.9-7.6-23.6-21.6-42.6-39.2-59.7-11.9-11.6-23.8-23.5-31.5-38.8-5.9-11.7-4.3-19.8 7.7-24.8 12.5-5.3 26-8.1 38.7-13.1 11.7-4.6 23.1-10 34-16.3 22.6-13 20.7-11.5 34.7 6.4 10.9 14 21.7 28.1 31.8 42.6 10.6 15.2 16.1 32.6 20.1 50.5 1.3 5.5 2.1 11.2 3.2 16.9M1210.6 1027.1c5.7 9.4 4 19.2.1 28.1-9.7 22.2-24 40.9-44.5 54.5-6 4-12.2 4.1-18 .8-5.6-3.2-11.5-6.9-15.7-11.8-16.1-18.9-36.2-31.1-59-40.1-15.5-6.1-31-12.6-43.9-23.8-9.9-8.5-11.6-16.6-2.4-25.9 9.5-9.7 21-17.5 30.7-27 9-8.7 17.5-18.1 25.2-28 15.9-20.7 14.8-18.5 34.4-7.4 15.4 8.7 30.8 17.6 45.7 27.1 15.6 10 27.4 23.9 37.9 38.9 3.3 4.8 6.3 9.8 9.5 14.6M62.7 244.8c6.9 8.6 6.5 18.5 3.9 27.8-6.7 23.3-18.4 43.7-36.9 59.9-5.4 4.7-11.5 5.7-17.7 3.2-6-2.5-12.3-5.3-17.1-9.6-18.4-16.6-40.1-26-63.8-31.9-16.1-4-32.4-8.4-46.7-17.7-10.9-7.1-13.7-14.9-5.9-25.3 8.1-10.9 18.4-20.1 26.9-30.8 7.8-9.8 15-20.3 21.2-31.1 13-22.6 12.2-20.3 33.2-11.9 16.4 6.6 32.8 13.4 48.9 20.8 16.8 7.8 30.3 20.1 42.8 33.6 3.9 4.1 7.5 8.6 11.2 13M888.1 27.3c5.9 1.3 11.9 2.6 17.8 4 29.2 7 58.6 7.6 88.3 4.3 12.8-1.4 25.7-3.1 38.5-3.2 10.8-.1 14.6 5.6 12.6 15.9-3.1 15.7-8.3 30.7-21 41-8.2 6.7-18 11.9-27.7 16.4-7.5 3.5-15.8 5.5-24 7-18.2 3.3-31.6 13.4-43.4 27.1-7.5 8.7-16.3 17-26 23-15.5 9.4-24.7 13-39.6-3-6.6-7-13.2-14-19.6-21.2-4.2-4.7-8.5-9.5-12-14.8-6.3-9.5-8.5-19.6-1.7-29.9 4.3-6.5 9.2-12.7 13.8-18.9 9.6-13 19.6-25.7 28.8-39 3.9-5.5 8.3-8.6 15.2-8.7M927 537.3c17-1 34-1 50.8-3.3 12.8-1.7 24.8.1 36.7 3.8 12.6 3.8 25 8.2 37.4 12.6 12.9 4.6 19.9 18.6 14.6 32.8-3.2 8.8-8.7 17.3-15 24.2-13.4 14.4-28.3 27.2-38 45.1-8.3 15.2-23.6 17.8-39.4 7.6-12.3-7.9-23.5-17.6-35.7-25.8-6-4-13-6.5-19.8-9.1-13.2-5-26.8-9.2-39.9-14.6-9.1-3.8-13.5-12-15.4-21.4-4.9-23.9 11.7-49.4 35.6-53.3 9.1-1.5 18.7-.2 28-.2 0 .5.1 1.1.1 1.6M547 506.1c-.9 10.3-1.5 19.1-2.5 27.9-.4 3.7-1.3 7.5-2.7 11-3.5 8.5-7.7 10.6-16 6.9-13.1-5.9-25.8-12.9-38.8-19-25.2-11.9-51.7-19-79.6-21.5-13.6-1.2-27-4.1-40.5-6.4-1.7-.3-3.4-.9-5.1-1.5-14.4-5.7-16.5-12.5-7.1-24.7 14.5-18.8 32.6-33.9 52.4-46.8 11.4-7.5 23-14.8 34.9-21.5 11.8-6.5 24.2-8.3 37.1-2 18 8.7 36.2 17 51.3 30.7 9.4 8.6 15 18.7 14.9 31.9.1 12.2 1.2 24.3 1.7 35M1408.5 472.4c-1.6 18.8-2.5 33.7-4.3 48.6-.9 6.9-3.2 13.8-5.8 20.4-3.1 7.8-8.1 9.8-15.8 6.6-7-3-13.7-6.5-20.3-10.2-32.3-18.2-66.8-29.2-103.8-32.6-11.3-1-22.6-3.2-33.6-6.1-16-4.2-18.2-12.7-7.8-25.2 20.7-25.2 47.7-42.2 75.4-58.3 4.8-2.8 9.7-5.5 14.6-8.2 15.9-8.6 31.6-8.1 47 1.3 10.2 6.2 20.9 11.7 30.3 18.9 7.6 5.9 15.4 13.1 19.7 21.4 3.9 7.8 3.5 17.8 4.4 23.4M742.5 260.2c-26.2 1.5-40.3-20.4-33.5-41.8 3.9-12.2-.2-24-4.6-35.5-5.9-15.6-8.3-31.8-8-48.4.2-8.1 3.7-13.4 11.8-15.6 11.8-3.2 20.6-10.7 27.7-20.2 4.4-5.8 9.1-8 16.3-4.5 7 3.4 15.1 4.9 21.7 8.9 6.9 4.2 14.7 9.4 18.3 16.2 9.8 18.6 23.4 32.7 41 43.7 8.1 5 15.8 11 22.6 17.7 6.7 6.5 5.2 12.8-2.9 17-3.1 1.6-6.4 3.2-9.8 3.8-19.4 3.4-34.1 14.5-47.5 28.1-7.5 7.5-15.5 14.6-23.7 21.3-8.9 6.9-19.2 10-29.4 9.3M437 1093.8c-42.4 2.4-65.3-33-54.2-67.6 6.3-19.7-.4-38.8-7.5-57.5-9.6-25.2-13.4-51.4-12.9-78.3.3-13 6-21.7 19.1-25.2 19.1-5.1 33.3-17.3 44.8-32.7 7.1-9.5 14.7-13 26.3-7.3 11.4 5.6 24.5 7.9 35.1 14.4 11.2 6.9 23.9 15.2 29.6 26.1 15.8 30.1 37.8 53 66.4 70.8 13.1 8.2 25.6 17.8 36.6 28.6 10.8 10.5 8.4 20.6-4.7 27.6-5 2.6-10.4 5.1-15.9 6.1-31.5 5.4-55.2 23.5-76.9 45.4-12.1 12.2-25 23.6-38.4 34.4-14.1 11.3-30.9 16.3-47.4 15.2M641.8 74.5c-24.8 2.8-45.2-9.6-63.8-27.2-17.3-16.4-35.5-31.7-53.1-47.7-9.1-8.3-17.9-17-26.6-25.9-3-3-5.5-6.7-7.3-10.6-3.9-8.1-2.9-14.4 4.5-19.4 9.8-6.5 20.3-12.3 31-17.2 7.4-3.3 14.6-1.7 20.4 5.2 10.4 12.5 21.4 24.5 36.7 31.3 19.8 8.8 40.6 11.9 62.2 11.5 13.6-.2 27.3.7 40.8 2.6 10.3 1.4 14.1 7.5 11.2 17.6-5.3 18.1-11.7 35.9-17.7 53.8-1 3.1-2 6.2-3.2 9.3-6 15.3-18.9 17.3-35.1 16.7M1110.2 507.9c1.8 28.8-19 34.2-42.1 30.3-38.7-6.6-73.2-24.5-106.6-44.4-5.5-3.3-10.1-8.5-14.1-13.6-6.3-7.9-6.4-17.7.4-25.1 16.9-18.5 33.1-38 52-54.3 22.7-19.6 28.5-16.6 51.9 1 21.6 16.3 38.9 37.6 50.8 61.8 6.5 13.1 6.8 29.2 9.8 43.9-.7.1-1.4.2-2.1.4M1102 875.6c1 15.1-10 18-22.1 15.9-20.3-3.5-38.5-12.9-56-23.3-2.9-1.7-5.3-4.5-7.4-7.1-3.3-4.2-3.4-9.3.2-13.2 8.9-9.7 17.4-19.9 27.3-28.5 11.9-10.3 15-8.7 27.2.5a93 93 0 0 1 26.7 32.4c3.4 6.9 3.6 15.3 5.2 23.1-.4 0-.7.1-1.1.2M935.5 418.7c-5.6-2.4-13-4.4-19.1-8.4-11.5-7.4-22-16.3-33.4-23.7-6.7-4.3-9.4-9.9-8.9-17.1 1.4-20.1 10-37.7 21.7-53.6 3.3-4.5 9.1-7.2 14-10.3 18.9-11.7 31.3-30.2 47-45.2 4.5-4.3 9.4-8.7 15-11.2 3.4-1.5 10.1-.9 12.5 1.5 13 12.7 26 25.7 37.3 39.9 13.6 16.9 12.8 35.7-.2 52.5-14.4 18.6-30 36.3-45.8 53.7-6.2 6.8-14 12.3-21.9 17.2-4.6 2.6-10.6 2.8-18.2 4.7M215.8 545.6c-27.2-1.3-51.4-11.9-75.3-23.1-12.6-5.9-25.4-11.5-37.4-18.6-21.3-12.7-25.8-30.6-11.4-50.5a423 423 0 0 1 41.3-48.5c12.2-12.3 21-12.1 35.5-2.8 29.1 18.6 52.8 42.7 69.9 72.5 9 15.7 9.2 34.1 8.8 51.9-.2 8.4-6 14.8-14.3 16.7-5.5 1.4-11.4 1.6-17.1 2.4M737.7 354.8c30.9.9 61.7 2 92.6 2.8 11.4.3 18.4 4.4 21.3 15.6 4.3 16.7 4.1 33.1-7 47.8-4.5 6-10.3 9-17.9 10-18.9 2.5-36 10.4-52.2 19.8-11.4 6.6-22 14.4-33 21.6-3.8 2.5-7.7 5-11.8 6.7-17.7 7.4-32.9-1.8-34.9-20.9-.8-8-.3-16.3-2.2-24.1-2.3-9.5-6.1-18.8-10-27.8-8.7-19.7-1.5-50.1 30.2-52.1 8.3-.5 16.7-.8 25-1.1-.1.5-.1 1.1-.1 1.7M696.2 910.5c28.7.9 57.4 1.8 86.2 2.6 10.6.3 17.1 4.1 19.8 14.5 4 15.5 3.8 30.8-6.5 44.4-4.2 5.5-9.6 8.4-16.7 9.3-17.5 2.4-33.5 9.6-48.6 18.4-10.6 6.1-20.5 13.4-30.7 20.1-3.5 2.3-7.1 4.6-11 6.3-16.5 6.9-30.6-1.6-32.5-19.5-.8-7.5-.2-15.2-2-22.4-2.2-8.8-5.6-17.5-9.3-25.8-8.1-18.3-1.4-46.6 28.1-48.4 7.7-.5 15.5-.7 23.3-1.1-.1.4-.1 1-.1 1.6M-.5 554.1c30.9.9 61.7 2 92.6 2.8 11.4.3 18.4 4.4 21.3 15.6 4.3 16.7 4.1 33.1-7 47.8-4.5 6-10.3 9-17.9 10-18.9 2.5-36 10.4-52.3 19.8-11.4 6.6-22 14.4-33 21.6-3.8 2.5-7.7 5-11.8 6.7-17.7 7.4-32.9-1.8-34.9-20.9-.8-8-.3-16.3-2.2-24.1-2.3-9.5-6.1-18.8-10-27.8-8.7-19.7-1.5-50.1 30.2-52.1 8.3-.5 16.7-.8 25-1.1zM628.4 433.1c7.1.3 14.3 3.3 17 11.4 5.4 16.1 18.6 26 28.9 38.4 13.5 16.3 26.6 33.2 37.6 51.2 5.3 8.6 6 20.2 7.9 30.5 1.1 5.9-1.8 11.3-7.4 13.8-6.2 2.7-12.8 5.4-19.4 6.2-21.3 2.4-41.6 8.5-61.5 16-9.4 3.6-17.3.5-23-11.6-6.9-14.6-13.6-29.6-17.8-45.1-4.1-15.3-5-31.4-7.4-47.1-.4-2.5-.9-5.1-2.1-7.2-9.3-16.4-5.9-30.7 9.3-42.4 10.9-8.6 22.8-13.8 37.9-14.1M1379.3 936.4c7.1.3 14.3 3.3 17 11.4 5.4 16.1 18.6 26 28.9 38.4 13.5 16.3 26.6 33.2 37.6 51.2 5.3 8.6 6 20.2 7.9 30.5 1.1 5.9-1.8 11.3-7.4 13.8-6.2 2.7-12.8 5.4-19.4 6.2-21.3 2.4-41.6 8.5-61.5 16-9.4 3.6-17.3.5-23-11.6-6.9-14.6-13.6-29.6-17.8-45.1-4.1-15.3-5-31.4-7.4-47.1-.4-2.5-.9-5.1-2.1-7.2-9.3-16.4-5.9-30.7 9.3-42.4 10.8-8.7 22.8-13.9 37.9-14.1M568.6 145.6c-.7-5.6-2.3-16.6-3.3-27.7-1.7-18.7 6.7-26.5 25.2-23.6 14.5 2.3 29 5.2 43.5 7.1 7.7 1 15.7.6 23.5.8 8.4.2 11.5 3.3 10.9 11.8-1.9 25.6 1.4 50.4 8.8 75 4.6 15.1.5 29.7-10.7 40.7-4.3 4.2-12.2 5.6-18.7 6.5-5.6.8-11.7-.3-17.3-1.8-18.8-5.1-35.7.1-51.8 8.9-8 4.4-16.1 5.8-24.9 4.1-8.7-1.6-12.9-6.8-10.5-15.1 3-10.4 6.4-21 11.9-30.2 9.5-15.9 13-32.8 13.4-56.5M-84 406.4c-.9-7.3-3-21.7-4.3-36.2-2.3-24.4 8.7-34.6 33-30.8 19 3 37.9 6.8 56.9 9.3 10.1 1.3 20.5.8 30.8 1 11 .3 15 4.4 14.2 15.5-2.5 33.5 1.8 65.9 11.6 98.1 6 19.7.6 38.8-14 53.2-5.6 5.5-15.9 7.4-24.4 8.5-7.3 1-15.4-.4-22.6-2.4-24.5-6.7-46.7.1-67.8 11.6-10.5 5.7-21.1 7.5-32.5 5.4-11.3-2.2-16.9-8.9-13.7-19.8 3.9-13.6 8.4-27.4 15.5-39.5 12.2-20.8 16.8-43 17.3-73.9M840.2 333c-5.5-.8-11-1.5-16.5-2.5-21.1-3.7-41.9-.7-62.7 2.7-17.1 2.8-23.4-1.1-27.7-17.6-1.8-6.8-2.7-14-2.6-21 .1-11.9 4.9-17.7 16.4-20.7 7.8-2 15.9-3.1 23.9-4.2 15.1-2 26.3-10.1 37-20.6 13-12.7 27.2-24.4 42-34.9 14.9-10.6 29.2-6.7 41.1 3.8 7 6.1 11.6 15.1 16.5 23.3 1.7 2.9 1.7 7.6.7 11-6.8 23.3-18.6 44.4-32.3 64.2-8.7 12.6-18.6 16-35.8 16.5M622.4 884.7c-23.2.9-41.2-10-58.1-24.5-15.6-13.3-32.6-24.9-48.4-38-11.5-9.5-22.9-19.3-32.7-30.4-8-9-5.8-16.3 4.7-22.6 7.6-4.5 15.7-8.3 23.8-11.6 9.2-3.8 17.1-1.1 23.8 6.3 10.3 11.4 22 20.9 36.7 26.3 18 6.5 36.5 7.2 55.4 6.8 12.4-.3 24.9-.2 37.1 1.1 10.5 1.1 13.5 5.7 12.1 16.2-.7 5.5-2.7 10.8-4.5 16-4.2 12.5-8.7 24.9-13.1 37.3-3.6 10.1-10.5 15.8-21.7 15.8-5 .1-10 .9-15.1 1.3M1457.9 875c-31.2.7-50.1-6.7-66.2-22.9-12.7-12.7-27.5-23.3-41-35.2-10.8-9.5-21.9-19-31.6-29.7-10.7-11.9-9.3-19.7 4.4-27.6 8.9-5.1 18.7-8.9 28.4-12.5 6.8-2.5 13.1-.2 17.6 5.7 19.4 25.6 46.1 35.6 77.2 35.7 11.2 0 22.3-1.2 33.5-1.3 5.5-.1 11.2.5 16.6 1.9 7.8 2 10.8 6.7 8.2 14.3-5.2 15.3-11.3 30.4-17 45.5-1.3 3.3-2.5 6.7-4.1 9.7-7.5 13-13.6 15.7-26 16.4M132.4 235.2c-31.2.7-50.1-6.7-66.3-22.9-12.7-12.7-27.5-23.3-41-35.2-10.8-9.5-21.9-19-31.6-29.7-10.7-11.9-9.3-19.7 4.4-27.6 8.9-5.1 18.7-8.9 28.4-12.5 6.8-2.5 13.1-.2 17.6 5.7 19.4 25.6 46.1 35.6 77.2 35.7 11.2 0 22.3-1.2 33.5-1.3 5.5-.1 11.2.5 16.6 1.9 7.8 2 10.8 6.7 8.2 14.3-5.2 15.3-11.3 30.4-17 45.5-1.3 3.3-2.5 6.7-4.1 9.7-7.3 13-13.5 15.8-25.9 16.4M742.7 537c1.6-10.5 3-21 4.9-31.5 1.7-9.1 6.9-15.7 15.3-19.6 15.9-7.4 31.6-15.1 47.6-21.9 17.5-7.5 34.9-15.1 49.8-27.1 8.2-6.6 16.6-5 24.1-.5 19.2 11.7 31.9 28.6 37.2 50.6 1.9 7.8-.8 11.6-8.7 12.3-14.9 1.3-29 5.3-41.5 13.3-6.1 3.9-13 8.2-16.4 14.2-11 19-28.5 25.5-48.4 28.8-15.5 2.6-31 5.2-46.4 7.9-11.6 2-15-.3-16.3-11.9-.5-4.8-.1-9.6-.1-14.4-.3-.1-.7-.2-1.1-.2M1186.8 73.4c-2 15.3-2.6 30.9-6.5 45.7-2.5 9.6-8.6 18.8-15 26.6-6.7 8.3-18.2 8.7-27.2 3.6-21.2-11.9-42.4-23.8-63.7-35.5-14.1-7.7-19.7-18.8-13.3-33.5a688 688 0 0 1 31.1-62.6c7.8-14 22.7-19.4 33.3-13.4 6 3.4 10.6 9.3 16.1 13.6 8.4 6.5 16.6 13.5 25.7 18.9 14.5 8.3 21 20.1 19.5 36.6M69.2 871.2c-2 15.3-2.6 30.9-6.5 45.7-2.5 9.6-8.6 18.8-15 26.6-6.7 8.3-18.2 8.7-27.2 3.6-21.2-11.9-42.4-23.8-63.7-35.5-14.1-7.7-19.7-18.8-13.3-33.5a688 688 0 0 1 31.1-62.6c7.8-14 22.7-19.4 33.3-13.4 6 3.4 10.6 9.3 16.1 13.6 8.4 6.5 16.6 13.5 25.7 18.9 14.5 8.3 20.9 20.1 19.5 36.6M297.5 78.7c-1.9 16.6-3 33-6.1 49-1.3 6.8-6.1 13.3-10.7 18.8-8 9.6-18.2 10.6-31 4.2-21.3-10.6-42.6-21.4-63.8-32.2-13.1-6.7-19.4-17.2-14.7-30.4 8.7-24.8 17.3-50 34.1-70.9 8-10 21.3-15.4 34.4-4.4 13.9 11.6 29.4 21.3 44.4 31.5 12.7 8.7 12.7 21.7 13.4 34.4M896.6 196.8c1.1-9.6 6.4-14.7 13.2-18.1 27.7-13.8 55.5-27.2 83.1-41.1 5.1-2.6 9.9-6.2 14.1-10.1 17-16.3 32.8-16.5 50.1-.7 5.4 4.9 11.3 9.3 17.6 13.1 14.9 8.9 15.6 13.2 4.7 27.6-9.4 12.4-21.1 23.2-32.5 33.8-10 9.2-20.9 17.4-31.7 25.7-5.8 4.4-12 5-19.2 1.8-19.6-8.6-40.8-9.7-61.8-10.8-10.4-.6-21.2-.5-29.1-8.5-3.6-3.5-5.7-8.4-8.5-12.7M1043.9 743.1c-14.2 0-21.2-6.8-24.5-20.5-2.6-11-7.1-21.5-11.6-32-2.2-5.1-1.7-9.2 2-12.4 5.7-4.9 11.5-10.1 18.2-13.5 27.4-14 42.7-38 55.8-64.3a38 38 0 0 1 12.9-14.1c7.7-4.9 13.8-2.5 18.4 5.5 4.4 7.7 8.7 15.5 12.9 23.3 5.5 10 12.8 18 23.2 23.3s11.4 12.3 3.6 20.6a580 580 0 0 1-79.1 71c-9.4 7.2-19.5 12.8-31.8 13.1M205.9 751.9c-15.6-.3-22.6-6.7-27.1-19.6-3.8-11.1-9.1-21.8-14.6-32.3-2.9-5.6-2.2-10.1 1.8-13.7 7.1-6.4 14.6-12.6 22.5-17.9 17.5-11.9 28.5-28.5 36.5-47.5 2.4-5.6 4.6-11.3 7.3-16.8 3.2-6.6 8.2-10.8 16-11.1 7.3-.3 9.7 5 13 9.9 7.1 10.8 14.2 21.7 22.2 31.7 4 4.9 9.8 8.8 15.4 11.9 13 7 14.9 12.4 4.8 23.3-18.5 20.2-37.7 39.6-56.6 59.4-9.5 9.9-20.4 17.4-33.7 21.3-2.9.8-6.2 1.1-7.5 1.4M628.9 669.8c-3.1 15.6 4.6 28.6 9.3 42.4 3.3 9.8 7.2 19.5 10.2 29.4 3.3 10.9-1.2 19.1-12.5 20.7-10.4 1.4-21.3 1.8-31.6.2-16.7-2.6-33.4-6-49.5-11.1-13.9-4.5-19.7-10.8-14.4-27.1 2.9-8.9 5.1-18 8.1-26.9 6.6-20 2.8-40.9 5.5-61.2 1.3-9.7 3.6-19.4 6.1-28.9 2.1-7.8 6.8-9.9 13.9-6 21.3 11.7 39 27.5 51 48.7 3.1 5.6 2.7 13.2 3.9 19.8M1453.4 757.1c-19.7-1.9-41-4.7-61.2-13.2-14.2-6-16.5-11.7-11.3-26 5.6-15.2 11.4-30.4 15.7-46 2.8-10.4 2.4-21.6 4.7-32.2 2.8-13 6.7-25.9 10.8-38.6 2.3-7.3 7.7-9 14.5-5.1 18.9 10.9 33.8 26 43.5 45.5 3.1 6.1 3.6 14.6 2.4 21.5-2.5 15 1.7 28.7 5.2 42.6 1.9 7.6 4.2 15.1 5.9 22.8 4.1 19.3-3.1 28.2-23 28.8-1.8 0-3.6-.1-7.2-.1M-106.7 66.8c-3.5-9.5-6.8-19.1-10.5-28.6-3.8-9.7-1.3-14 9-14.1 17.5-.3 33.8 5.1 50.1 10.8 10.1 3.5 21 4.7 31.5 7.1 14.3 3.3 28.9 5.9 42.8 10.5A20.8 20.8 0 0 1 30 76.2C27.7 87.4 19.6 94.1 7.3 94.5c-18.6.6-36.7 3.2-54.7 8.2-10.5 2.9-21.8 3.7-32.7 3.8-12.2.1-18.3-5.9-21.5-17.6-2-7.2-4.3-14.4-6.4-21.6.4-.2.9-.3 1.3-.5M1161.7 192c-5.2 20.3-10.2 40.6-15.8 60.8-.9 3.1-4 5.8-6.5 8.2a259 259 0 0 1-60.9 42.5c-12.3 6.2-14.8 5.2-24-5.1-7.5-8.4-15.2-16.8-22-25.8-5-6.7-4-14.1 2-20 14.6-14.4 29.2-28.8 44.3-42.7 8.5-7.9 16.5-15.9 19.6-27.4 2.3-8.4 8-12.6 16.4-11.4 11.9 1.7 23.8 4 35.5 7.1 6 1.5 10.5 6.1 11.4 13.8M109.8 979.4c-5.2 20.3-10.2 40.6-15.8 60.8-.9 3.1-4 5.8-6.5 8.2a259 259 0 0 1-60.9 42.5c-12.3 6.2-14.8 5.2-24-5.1-7.5-8.4-15.2-16.8-22-25.8-5-6.7-4-14.1 2-20 14.6-14.4 29.2-28.8 44.3-42.7 8.5-7.9 16.5-15.9 19.6-27.4 2.3-8.4 8-12.6 16.4-11.4 11.9 1.7 23.8 4 35.5 7.1 6 1.5 10.5 6 11.4 13.8M218.8 577c-4.1 16-8 32-12.4 47.9-.7 2.4-3.1 4.6-5.1 6.4a205 205 0 0 1-48.1 33.5c-9.7 4.9-11.7 4.1-18.9-4-5.9-6.7-12-13.2-17.4-20.4-4-5.3-3.2-11.1 1.6-15.8 11.5-11.3 23-22.7 34.9-33.7 6.7-6.2 13-12.5 15.5-21.6 1.8-6.7 6.3-10 12.9-9 9.4 1.4 18.8 3.1 28 5.6 4.7 1.3 8.3 5 9 11.1M276.7 199.5c-3.2 17.4-5.7 34.9-9.9 52.1-3.5 14.3-16.4 21.6-27 29.9-11.7 9.2-24.3 17.4-36.9 25.3-12.8 8.1-19.8 8.6-29-3-5.8-7.3-13.1-13.5-18.7-20.8-6.3-8.2-7.3-17.4.3-25.7 11.1-12.2 21.9-24.7 33.9-35.8 10.9-10.2 21.6-19.8 24.6-35.4 1-5.4 4.8-8.5 10.6-9.3a78 78 0 0 1 40.3 5.1c8 3.1 12.5 8.3 11.8 17.6M313.5 184.8c-20.3 0-26.1-9.9-16.6-26 5.9-10 13.3-19.2 18.8-29.4 4-7.3 5.9-15.6 8.8-23.4 4.4-11.6 8.3-23.4 13.6-34.5 2.1-4.5 6.5-8.8 11-10.9 3.6-1.7 9.8-1.4 13.2.7 20.8 12.7 38.6 29 53.5 48.1 5.2 6.7 8.7 15.4 10.5 23.8 2.2 10.4-2.8 18.7-12.7 22.6-29.9 11.8-59.8 24-92 28.2-3.3.5-6.6.7-8.1.8M1203.2 182.8c-6.6-.6-11.7-.5-16.7-1.5-8.8-1.7-12.8-7.9-9.4-16.3 3.4-8.1 7.8-16 13.4-22.7 11.3-13.7 17-29.7 22.5-46.1 3.4-10.2 8.3-20.2 13.9-29.4 6.8-11.2 18-12.6 28-3.7 13.9 12.5 27.8 25.1 40.4 38.9 6.3 6.9 11.6 15.9 14 24.9 3.8 14.5-2.1 25-17.2 30.5-22.8 8.2-46.3 14.9-69.5 21.8-6.7 1.9-13.8 2.5-19.4 3.6M100.1 393.7c-5.1 1.4-9 2.9-13 3.5-7.1 1.2-12-2.4-11.7-9.7.3-7.1 1.4-14.4 3.8-21 4.7-13.6 4.5-27.3 4.1-41.3-.3-8.7.6-17.6 2.3-26.2 2-10.4 10.1-14.6 20.2-10.7 14.1 5.6 28.1 11.2 41.6 18.1 6.7 3.4 13.3 8.8 17.6 14.9 7 9.9 5.4 19.6-4.5 27.9-15 12.6-30.9 24.3-46.6 36.1-4.7 3.5-9.9 6-13.8 8.4M674.7 746.8c-.9-11.1-1.6-22.2-2.6-33.3-.8-8.2 3.8-12.1 12.4-10 15.9 3.9 31.1 9.8 44.1 19.8 15.7 12.2 34.3 18.5 52.1 26.4 9.5 4.2 18.7 9.1 27.4 14.6 8.7 5.4 12.3 16.7 9.4 25.1-3.8 10.8-13.1 16.9-24.8 15.4-12.6-1.6-25-4.3-37.5-6-9.8-1.3-19.7-1.2-29.5-2.5-13.1-1.7-26.1-3.6-39-6.3-8-1.7-12.5-9.7-12.8-20.4-.2-7.6 0-15.2 0-22.8zM769.4 79.7c-16.5 0-33 .4-49.4-.1-11.4-.4-14.4-5.3-12.1-16.7 4.7-22.7 17.8-40.7 33.3-57 2.8-2.9 9.2-4.9 13.1-4 21.9 5.3 43.3 3 64.6-2.6 6-1.6 10.4.1 14.5 4.1 4.3 4.3 8.9 8.3 12.7 13 4.8 6 4.3 12-.7 18-9.4 11.3-18.6 22.6-28.2 33.7-8.2 9.5-19.6 10.7-31.2 11.2-5.6.2-11.1 0-16.7 0 .1.2.1.3.1.4M92.1 104.8c-12.8 0-25.7.3-38.5-.1-8.9-.3-11.3-4.1-9.4-13C47.8 74 58.1 60 70.1 47.3c2.2-2.3 7.2-3.8 10.2-3.1 17.1 4.1 33.8 2.3 50.4-2.1 4.7-1.2 8.1.1 11.3 3.2 3.4 3.3 7 6.5 9.9 10.1 3.8 4.7 3.4 9.4-.5 14-7.3 8.8-14.5 17.6-22 26.3-6.4 7.4-15.3 8.4-24.3 8.7-4.3.2-8.7 0-13 0zM313 493.9c9.3 3.4 18.9 6.1 27.6 10.5 12.1 6.1 24.3 12.5 35.1 20.6 10.4 7.8 9.5 19.8-1.1 27.6-11.2 8.1-23.5 14.8-34.8 22.7-5.9 4.1-11.1 9.4-16.4 14.5-3.5 3.3-6.3 7.4-9.9 10.5-7.9 7-18.2 10.1-26.5-2.1-7-10.3-14.7-20.1-20.3-31.1-2.7-5.2-3-13.2-1.1-18.9 6.7-20.3 20.9-35.6 36.5-49.5 2.7-2.4 6.8-3.1 10.9-4.8M1121.6 552.4c.6-13.2 7.3-22.7 14.2-31.6 6.8-8.7 15.1-16.3 23-24.1 7.8-7.7 17.3-10 27.3-5.3 15.3 7.1 31.3 13.5 45.2 22.9 15.9 10.7 13.9 26-3 35.2-20.7 11.3-41 23-57.1 41-3.1 3.4-7.7 5.7-12.1 7.6-6.3 2.7-12.3 1.5-16-4.6a891 891 0 0 1-19.9-34.1c-1.3-2.3-1.3-5.3-1.6-7M747 887.5c-14.7 0-29.4.1-44 0-14.9-.1-18-4.3-14.7-18.7 4.1-18.3 15.3-32.5 27.8-45.4 3.2-3.3 10.4-4.9 15.2-4 17.8 3.3 35.2 2.6 52.7-1.7 13.9-3.4 27.4 3.2 34.2 15.7 2.4 4.5 2.3 8.6-1.2 12.6-8.6 9.6-16.9 19.5-25.7 29-8 8.6-18.6 10.8-29.8 11-4.8.1-9.6 0-14.4 0-.2.5-.1 1-.1 1.5"/></g></svg>